<svg xmlns="http://www.w3.org/2000/svg" viewBox="0 0 100 100">
  <!-- CPU chip with waves -->
  <defs>
    <linearGradient id="cpuGrad" x1="0%" y1="0%" x2="100%" y2="100%">
      <stop offset="0%" style="stop-color:#607D8B;stop-opacity:1" />
      <stop offset="100%" style="stop-color="#263238;stop-opacity:1" />
    </linearGradient>
  </defs>
  
  <!-- Chip body -->
  <rect x="30" y="30" width="40" height="40" fill="url(#cpuGrad)" rx="2"/>
  
  <!-- Pins left -->
  <rect x="20" y="35" width="10" height="3" fill="#90A4AE"/>
  <rect x="20" y="42" width="10" height="3" fill="#90A4AE"/>
  <rect x="20" y="49" width="10" height="3" fill="#90A4AE"/>
  <rect x="20" y="56" width="10" height="3" fill="#90A4AE"/>
  <rect x="20" y="63" width="10" height="3" fill="#90A4AE"/>
  
  <!-- Pins right -->
  <rect x="70" y="35" width="10" height="3" fill="#90A4AE"/>
  <rect x="70" y="42" width="10" height="3" fill="#90A4AE"/>
  <rect x="70" y="49" width="10" height="3" fill="#90A4AE"/>
  <rect x="70" y="56" width="10" height="3" fill="#90A4AE"/>
  <rect x="70" y="63" width="10" height="3" fill="#90A4AE"/>
  
  <!-- Pins top -->
  <rect x="35" y="20" width="3" height="10" fill="#90A4AE"/>
  <rect x="42" y="20" width="3" height="10" fill="#90A4AE"/>
  <rect x="49" y="20" width="3" height="10" fill="#90A4AE"/>
  <rect x="56" y="20" width="3" height="10" fill="#90A4AE"/>
  <rect x="63" y="20" width="3" height="10" fill="#90A4AE"/>
  
  <!-- Pins bottom -->
  <rect x="35" y="70" width="3" height="10" fill="#90A4AE"/>
  <rect x="42" y="70" width="3" height="10" fill="#90A4AE"/>
  <rect x="49" y="70" width="3" height="10" fill="#90A4AE"/>
  <rect x="56" y="70" width="3" height="10" fill="#90A4AE"/>
  <rect x="63" y="70" width="3" height="10" fill="#90A4AE"/>
  
  <!-- Inner detail -->
  <rect x="38" y="38" width="24" height="24" fill="#37474F" rx="1"/>
  <circle cx="50" cy="50" r="8" fill="#455A64"/>
  
  <!-- Processing waves -->
  <circle cx="50" cy="50" r="5" fill="none" stroke="#00BCD4" stroke-width="1" opacity="0">
    <animate attributeName="r" values="5;15;5" dur="2s" repeatCount="indefinite"/>
    <animate attributeName="opacity" values="0;0.8;0" dur="2s" repeatCount="indefinite"/>
  </circle>
  <circle cx="50" cy="50" r="5" fill="none" stroke="#00BCD4" stroke-width="1" opacity="0">
    <animate attributeName="r" values="5;15;5" dur="2s" begin="0.5s" repeatCount="indefinite"/>
    <animate attributeName="opacity" values="0;0.8;0" dur="2s" begin="0.5s" repeatCount="indefinite"/>
  </circle>
  <circle cx="50" cy="50" r="5" fill="none" stroke="#00BCD4" stroke-width="1" opacity="0">
    <animate attributeName="r" values="5;15;5" dur="2s" begin="1s" repeatCount="indefinite"/>
    <animate attributeName="opacity" values="0;0.8;0" dur="2s" begin="1s" repeatCount="indefinite"/>
  </circle>
</svg>
